<mxfile host="Electron" agent="Mozilla/5.0 (X11; Linux x86_64) AppleWebKit/537.36 (KHTML, like Gecko) draw.io/26.1.1 Chrome/132.0.6834.210 Electron/34.3.3 Safari/537.36" version="26.1.1">
  <diagram name="Page-1" id="2apx_R3vOhhgRWIUHq46">
    <mxGraphModel dx="1408" dy="965" grid="1" gridSize="10" guides="1" tooltips="1" connect="1" arrows="1" fold="1" page="1" pageScale="1" pageWidth="1169" pageHeight="827" math="0" shadow="0">
      <root>
        <mxCell id="0" />
        <mxCell id="1" parent="0" />
        <mxCell id="Gw7kWCuVnW7ACXXqQHih-1" value="" style="shape=cylinder3;whiteSpace=wrap;html=1;boundedLbl=1;backgroundOutline=1;size=15;" parent="1" vertex="1">
          <mxGeometry x="80" y="220" width="60" height="80" as="geometry" />
        </mxCell>
        <mxCell id="Gw7kWCuVnW7ACXXqQHih-2" value="" style="shape=cylinder3;whiteSpace=wrap;html=1;boundedLbl=1;backgroundOutline=1;size=15;" parent="1" vertex="1">
          <mxGeometry x="570" y="239" width="60" height="80" as="geometry" />
        </mxCell>
        <mxCell id="Gw7kWCuVnW7ACXXqQHih-3" value="" style="shape=cylinder3;whiteSpace=wrap;html=1;boundedLbl=1;backgroundOutline=1;size=15;" parent="1" vertex="1">
          <mxGeometry x="890" y="450" width="60" height="80" as="geometry" />
        </mxCell>
        <mxCell id="Gw7kWCuVnW7ACXXqQHih-4" value="Platform CaC repository" style="text;html=1;align=center;verticalAlign=middle;whiteSpace=wrap;rounded=0;" parent="1" vertex="1">
          <mxGeometry x="80" y="170" width="60" height="30" as="geometry" />
        </mxCell>
        <mxCell id="ybKSOcKTHa6-YiN7pcPI-2" value="" style="edgeStyle=orthogonalEdgeStyle;rounded=0;orthogonalLoop=1;jettySize=auto;html=1;" edge="1" parent="1" source="Gw7kWCuVnW7ACXXqQHih-6" target="ybKSOcKTHa6-YiN7pcPI-1">
          <mxGeometry relative="1" as="geometry" />
        </mxCell>
        <mxCell id="Gw7kWCuVnW7ACXXqQHih-6" value="AAP Onboarding Template" style="shape=parallelogram;perimeter=parallelogramPerimeter;whiteSpace=wrap;html=1;fixedSize=1;" parent="1" vertex="1">
          <mxGeometry x="50" y="354" width="120" height="60" as="geometry" />
        </mxCell>
        <mxCell id="Gw7kWCuVnW7ACXXqQHih-7" value="AAP Tenant Organization" style="rounded=1;whiteSpace=wrap;html=1;" parent="1" vertex="1">
          <mxGeometry x="380" y="155" width="120" height="60" as="geometry" />
        </mxCell>
        <mxCell id="Gw7kWCuVnW7ACXXqQHih-11" value="Tenant CaC repository" style="text;html=1;align=center;verticalAlign=middle;whiteSpace=wrap;rounded=0;" parent="1" vertex="1">
          <mxGeometry x="570" y="200" width="60" height="30" as="geometry" />
        </mxCell>
        <mxCell id="Gw7kWCuVnW7ACXXqQHih-16" style="edgeStyle=orthogonalEdgeStyle;rounded=0;orthogonalLoop=1;jettySize=auto;html=1;entryX=0.5;entryY=0;entryDx=0;entryDy=0;" parent="1" source="Gw7kWCuVnW7ACXXqQHih-1" target="Gw7kWCuVnW7ACXXqQHih-6" edge="1">
          <mxGeometry relative="1" as="geometry" />
        </mxCell>
        <mxCell id="ybKSOcKTHa6-YiN7pcPI-16" value="" style="edgeStyle=orthogonalEdgeStyle;rounded=0;orthogonalLoop=1;jettySize=auto;html=1;" edge="1" parent="1" source="Gw7kWCuVnW7ACXXqQHih-19" target="Gw7kWCuVnW7ACXXqQHih-3">
          <mxGeometry relative="1" as="geometry" />
        </mxCell>
        <mxCell id="Gw7kWCuVnW7ACXXqQHih-19" value="Example Project" style="rounded=1;whiteSpace=wrap;html=1;" parent="1" vertex="1">
          <mxGeometry x="700" y="460" width="120" height="60" as="geometry" />
        </mxCell>
        <mxCell id="Gw7kWCuVnW7ACXXqQHih-21" value="Example automation&lt;div&gt;repository&lt;/div&gt;" style="text;html=1;align=center;verticalAlign=middle;whiteSpace=wrap;rounded=0;" parent="1" vertex="1">
          <mxGeometry x="890" y="400" width="60" height="30" as="geometry" />
        </mxCell>
        <mxCell id="ybKSOcKTHa6-YiN7pcPI-3" style="edgeStyle=orthogonalEdgeStyle;rounded=0;orthogonalLoop=1;jettySize=auto;html=1;entryX=0;entryY=0.5;entryDx=0;entryDy=0;" edge="1" parent="1" source="ybKSOcKTHa6-YiN7pcPI-1" target="Gw7kWCuVnW7ACXXqQHih-7">
          <mxGeometry relative="1" as="geometry" />
        </mxCell>
        <mxCell id="ybKSOcKTHa6-YiN7pcPI-6" style="edgeStyle=orthogonalEdgeStyle;rounded=0;orthogonalLoop=1;jettySize=auto;html=1;entryX=0;entryY=0.5;entryDx=0;entryDy=0;" edge="1" parent="1" source="ybKSOcKTHa6-YiN7pcPI-1" target="ybKSOcKTHa6-YiN7pcPI-4">
          <mxGeometry relative="1" as="geometry" />
        </mxCell>
        <mxCell id="ybKSOcKTHa6-YiN7pcPI-11" style="edgeStyle=orthogonalEdgeStyle;rounded=0;orthogonalLoop=1;jettySize=auto;html=1;" edge="1" parent="1" source="ybKSOcKTHa6-YiN7pcPI-1" target="ybKSOcKTHa6-YiN7pcPI-10">
          <mxGeometry relative="1" as="geometry" />
        </mxCell>
        <mxCell id="ybKSOcKTHa6-YiN7pcPI-12" style="edgeStyle=orthogonalEdgeStyle;rounded=0;orthogonalLoop=1;jettySize=auto;html=1;entryX=0;entryY=0.5;entryDx=0;entryDy=0;" edge="1" parent="1" source="ybKSOcKTHa6-YiN7pcPI-1" target="ybKSOcKTHa6-YiN7pcPI-8">
          <mxGeometry relative="1" as="geometry" />
        </mxCell>
        <mxCell id="ybKSOcKTHa6-YiN7pcPI-1" value="Creates" style="triangle;whiteSpace=wrap;html=1;" vertex="1" parent="1">
          <mxGeometry x="230" y="344" width="60" height="80" as="geometry" />
        </mxCell>
        <mxCell id="ybKSOcKTHa6-YiN7pcPI-7" style="edgeStyle=orthogonalEdgeStyle;rounded=0;orthogonalLoop=1;jettySize=auto;html=1;" edge="1" parent="1" source="ybKSOcKTHa6-YiN7pcPI-4" target="Gw7kWCuVnW7ACXXqQHih-2">
          <mxGeometry relative="1" as="geometry" />
        </mxCell>
        <mxCell id="ybKSOcKTHa6-YiN7pcPI-4" value="Tenant Project" style="rounded=1;whiteSpace=wrap;html=1;" vertex="1" parent="1">
          <mxGeometry x="380" y="249" width="120" height="60" as="geometry" />
        </mxCell>
        <mxCell id="ybKSOcKTHa6-YiN7pcPI-14" style="edgeStyle=orthogonalEdgeStyle;rounded=0;orthogonalLoop=1;jettySize=auto;html=1;entryX=0;entryY=0.5;entryDx=0;entryDy=0;" edge="1" parent="1" source="ybKSOcKTHa6-YiN7pcPI-8" target="ybKSOcKTHa6-YiN7pcPI-13">
          <mxGeometry relative="1" as="geometry" />
        </mxCell>
        <mxCell id="ybKSOcKTHa6-YiN7pcPI-8" value="Tenant CaC Job Template" style="rounded=1;whiteSpace=wrap;html=1;" vertex="1" parent="1">
          <mxGeometry x="380" y="460" width="120" height="60" as="geometry" />
        </mxCell>
        <mxCell id="ybKSOcKTHa6-YiN7pcPI-10" value="Tenant Org Inventory" style="rounded=1;whiteSpace=wrap;html=1;" vertex="1" parent="1">
          <mxGeometry x="380" y="354" width="120" height="60" as="geometry" />
        </mxCell>
        <mxCell id="ybKSOcKTHa6-YiN7pcPI-15" style="edgeStyle=orthogonalEdgeStyle;rounded=0;orthogonalLoop=1;jettySize=auto;html=1;" edge="1" parent="1" source="ybKSOcKTHa6-YiN7pcPI-13" target="Gw7kWCuVnW7ACXXqQHih-19">
          <mxGeometry relative="1" as="geometry" />
        </mxCell>
        <mxCell id="ybKSOcKTHa6-YiN7pcPI-19" style="edgeStyle=orthogonalEdgeStyle;rounded=0;orthogonalLoop=1;jettySize=auto;html=1;entryX=0;entryY=0.5;entryDx=0;entryDy=0;" edge="1" parent="1" source="ybKSOcKTHa6-YiN7pcPI-13" target="ybKSOcKTHa6-YiN7pcPI-17">
          <mxGeometry relative="1" as="geometry" />
        </mxCell>
        <mxCell id="ybKSOcKTHa6-YiN7pcPI-20" style="edgeStyle=orthogonalEdgeStyle;rounded=0;orthogonalLoop=1;jettySize=auto;html=1;entryX=0;entryY=0.5;entryDx=0;entryDy=0;" edge="1" parent="1" source="ybKSOcKTHa6-YiN7pcPI-13" target="ybKSOcKTHa6-YiN7pcPI-18">
          <mxGeometry relative="1" as="geometry" />
        </mxCell>
        <mxCell id="ybKSOcKTHa6-YiN7pcPI-13" value="Creates" style="triangle;whiteSpace=wrap;html=1;" vertex="1" parent="1">
          <mxGeometry x="570" y="450" width="60" height="80" as="geometry" />
        </mxCell>
        <mxCell id="ybKSOcKTHa6-YiN7pcPI-17" value="Example Inventory" style="rounded=1;whiteSpace=wrap;html=1;" vertex="1" parent="1">
          <mxGeometry x="700" y="540" width="120" height="60" as="geometry" />
        </mxCell>
        <mxCell id="ybKSOcKTHa6-YiN7pcPI-18" value="Example Job Template" style="rounded=1;whiteSpace=wrap;html=1;" vertex="1" parent="1">
          <mxGeometry x="700" y="620" width="120" height="60" as="geometry" />
        </mxCell>
      </root>
    </mxGraphModel>
  </diagram>
</mxfile>
